# AST/ASF file generated using VICON BodyLanguage
# -----------------------------------------------
:version 1.10
:name VICON
:units
  mass 1.0
  length 0.45
  angle deg
:documentation
   .ast/.asf automatically generated from VICON data using
   VICON BodyBuilder and BodyLanguage model FoxedUp or BRILLIANT.MOD
:root
   order TX TY TZ RX RY RZ
   axis XYZ
   position 0 0 0  
   orientation 0 0 0 
:bonedata
  begin
     id 1 
     name lhipjoint
     direction 0.646657 -0.683706 0.338203 
     length 2.4948 
     axis 0 0 0  XYZ
  end
  begin
     id 2 
     name lfemur
     direction 0.34202 -0.939693 0  
     length 6.79491  
     axis 0 0 20  XYZ
    dof rx ry rz
    limits (-160.0 20.0)
           (-70.0 70.0)
           (-60.0 70.0)
  end
  begin
     id 3 
     name ltibia
     direction 0.34202 -0.939693 0   
     length 7.56807   
     axis 0 0 20   XYZ
    dof rx
    limits (-10.0 170.0)
  end
  begin
     id 4 
     name lfoot
     direction 0.0679796 -0.186772 0.980048   
     length 2.53018   
     axis -90 7.62852e-016 20   XYZ
    dof rx rz
    limits (-45.0 90.0)
           (-70.0 20.0)
  end
  begin
     id 5 
     name ltoes
     direction 1.53625e-011 -4.21881e-011 1   
     length 1.26912   
     axis -90 7.62852e-016 20   XYZ
    dof rx
    limits (-90.0 20.0)
  end
  begin
     id 6 
     name rhipjoint
     direction -0.618868 -0.704065 0.348274   
     length 2.42265  
     axis 0 0 0  XYZ 
  end
  begin
     id 7 
     name rfemur
     direction -0.34202 -0.939693 0   
     length 6.73814   
     axis 0 0 -20   XYZ
    dof rx ry rz
    limits (-160.0 20.0)
           (-70.0 70.0)
           (-70.0 60.0)
  end
  begin
     id 8 
     name rtibia
     direction -0.34202 -0.939693 0   
     length 7.66799   
     axis 0 0 -20   XYZ
    dof rx
    limits (-10.0 170.0)
 end
 begin
     id 9 
     name rfoot
     direction -0.0727352 -0.199838 0.977125   
     length 2.57224  
     axis -90 -7.62852e-016 -20   XYZ
    dof rx rz
    limits (-45.0 90.0)
           (-20.0 70.0)
  end
  begin
     id 10 
     name rtoes
     direction -1.53501e-011 -4.21858e-011 1   
     length 1.28858   
     axis -90 -7.62852e-016 -20   XYZ
    dof rx
    limits (-90.0 20.0)
  end
  begin
     id 11 
     name lowerback
     direction -0.0172471 0.995767 -0.0902851   
     length 2.20206   
     axis 0 0 0   XYZ
    dof rx ry rz
    limits (-20.0 45.0)
           (-30.0 30.0)
           (-30.0 30.0)
  end
  begin
     id 12 
     name upperback
     direction -0.000110737 0.999714 0.0239043   
     length 2.19523   
     axis 0 0 0   XYZ
    dof rx ry rz
    limits (-20.0 45.0)
           (-30.0 30.0)
           (-30.0 30.0)
  end
  begin
     id 13 
     name thorax
     direction 0.00704869 0.997783 0.0661741   
     length 2.21977   
     axis 0 0 0   XYZ
    dof rx ry rz
    limits (-20.0 45.0)
           (-30.0 30.0)
           (-30.0 30.0)
  end
  begin
     id 14 
     name lowerneck
     direction -0.00407501 0.995527 0.0943846   
     length 1.83142   
     axis 0 0 0   XYZ
    dof rx ry rz
    limits (-20.0 45.0)
           (-30.0 30.0)
           (-30.0 30.0)
  end
  begin
     id 15 
     name upperneck
     direction 0.0640586 0.986486 -0.150807   
     length 1.84616   
     axis 0 0 0   XYZ
    dof rx ry rz
    limits (-20.0 45.0)
           (-30.0 30.0)
           (-30.0 30.0)
  end
  begin
     id 16
     name head
     direction 0.0188017 0.99791 -0.0618239  
     length 1.85932  
     axis 0 0 0   XYZ
    dof rx ry rz
    limits (-20.0 45.0)
           (-30.0 30.0)
           (-30.0 30.0)
  end
  begin
     id 17 
     name lclavicle
     direction 0.976074 0.206905 0.066852  
     length 3.81043  
     axis 0 0 0   XYZ
    dof ry rz
    limits (-20.0 10.0)
           (0.0 20.0)
  end
  begin
     id 18 
     name lhumerus
     direction 1 -4.48971e-011 1.86916e-027   
     length 5.37587   
     axis 180 -30 -90   XYZ
    dof rx ry rz
    limits (-60.0 90.0)
           (-90.0 90.0)
           (-90.0 90.0)
  end
  begin
     id 19
     name lradius
     direction 1 -4.48968e-011 1.69187e-027   
     length 3.35977   
     axis 180 -30 -90   XYZ
    dof rx
    limits (-10.0 170.0)
  end
  begin
     id 20
     name lwrist
     direction 1 -4.48968e-011 5.8978e-027   
     length 1.67988   
     axis -3.27506e-015 90 90   XYZ
    dof ry
    limits (-180.0 0.0)
 end
  begin
     id 21 
     name lhand
     direction 1 -4.49028e-011 1.18071e-026   
     length 0.561859   
     axis -7.52654e-015 90 90   XYZ
    dof rx rz
    limits (-90.0 90.0)
           (-45.0 45.0)
  end
  begin
     id 22 
     name lfingers
     direction 1 -4.48927e-011 2.35758e-026   
     length 0.452985   
     axis -1.50534e-014 90 90   XYZ
    dof rx
    limits (0.0 90.0)
  end
  begin
     id 23
     name lthumb
     direction 0.707107 -6.34898e-011 0.707107   
     length 0.650399   
     axis -90 45 5.69224e-014   XYZ
    dof rx rz
    limits (-45.0 45.0)
           (-45.0 45.0)
  end
  begin
     id 24 
     name rclavicle
     direction -0.988403 0.151789 0.00439714   
     length 3.6942  
     axis 0 0 0   XYZ 
    dof ry rz
    limits (-10.0 20.0)
           (-20.0 0.0)
  end
  begin
     id 25 
     name rhumerus
     direction -1 -4.48978e-011 1.62495e-027  
     length 5.22819   
     axis 180 30 90   XYZ
    dof rx ry rz
    limits (-90.0 60.0)
           (-90.0 90.0)
           (-90.0 90.0)
  end
  begin
     id 26 
     name rradius
     direction -1 -4.48961e-011 3.47796e-027   
     length 3.40764   
     axis 180 30 90   XYZ
    dof rx
    limits (-10.0 170.0)
  end
  begin
     id 27 
     name rwrist
     direction -1 -4.48949e-011 5.89602e-027   
     length 1.70382   
     axis -3.27506e-015 -90 -90   XYZ
    dof ry
    limits (-180.0 0.0)
  end
  begin
     id 28
     name rhand
     direction -1 -4.48977e-011 1.17973e-026   
     length 0.583255   
     axis -7.52654e-015 -90 -90   XYZ
    dof rx rz
    limits (-90.0 90.0)
           (-45.0 45.0)
  end
  begin
     id 29
     name rfingers
     direction -1 -4.49099e-011 2.36408e-026   
     length 0.470235   
     axis -1.50534e-014 -90 -90   XYZ
    dof rx
    limits (0.0 90.0)
  end
  begin
     id 30
     name rthumb
     direction -0.707107 -6.35011e-011 0.707107   
     length 0.675167   
     axis -90 -45 -5.69224e-014   XYZ
    dof rx rz
    limits (-45.0 45.0)
           (-45.0 45.0)
  end
:hierarchy
  begin
    root lhipjoint rhipjoint lowerback
    lhipjoint lfemur
    lfemur ltibia
    ltibia lfoot
    lfoot ltoes
    rhipjoint rfemur
    rfemur rtibia
    rtibia rfoot
    rfoot rtoes
    lowerback upperback
    upperback thorax
    thorax lowerneck lclavicle rclavicle
    lowerneck upperneck
    upperneck head
    lclavicle lhumerus
    lhumerus lradius
    lradius lwrist
    lwrist lhand lthumb
    lhand lfingers
    rclavicle rhumerus
    rhumerus rradius
    rradius rwrist
    rwrist rhand rthumb
    rhand rfingers
  end

#!OML:ASF G:\JayActor3\Patient Classification 1\Patient 1\Session 2\male.ASF
:FULLY-SPECIFIED
:DEGREES
422
root 37.0804 16.7389 -6.94988 -358.243 -77.7813 359.085
lowerback -0.550665 2.0367 0.940443
upperback 7.57193 2.51521 0.127723
thorax 8.27309 1.22878 -0.206273
lowerneck -0.00262136 8.99083 8.98915
upperneck 20.5487 12.022 -4.18735
head 7.10832 5.99033 -2.04321
rclavicle 4.46272e-014 -1.38155e-014
rhumerus -21.3253 2.84938 -88.2455
rradius 33.6741
rwrist -3.46669
rhand -27.058 -1.47863
rfingers 7.12502
rthumb -0.476105 -31.4578
lclavicle 4.46272e-014 -1.38155e-014
lhumerus -30.7314 -9.22284 91.2702
lradius 27.5316
lwrist 12.3623
lhand -18.2448 18.2408
lfingers 7.12502
lthumb 8.0341 48.0681
rfemur -20.1953 -10.2213 22.8632
rtibia 69.2945
rfoot 1.94155 -7.57044
rtoes 21.1996
lfemur -16.5267 6.22949 -26.755
ltibia 25.8178
lfoot -7.94502 0.316709
ltoes 5.59747
423
root 37.0115 16.7264 -6.94752 -358.88 -77.4966 359.6
lowerback -0.460528 2.03564 0.80397
upperback 7.65287 2.52027 0.0897998
thorax 8.30392 1.2223 -0.171422
lowerneck 0.139102 9.03879 9.04604
upperneck 20.4441 12.0973 -4.2086
head 7.06047 6.03252 -2.06048
rclavicle 1.63997e-015 -1.8487e-014
rhumerus -21.2446 2.55301 -88.0151
rradius 33.5869
rwrist -3.43267
rhand -27.1477 -1.54346
rfingers 7.12502
rthumb -0.562776 -31.5225
lclavicle 1.63997e-015 -1.8487e-014
lhumerus -30.0835 -9.4498 91.2523
lradius 27.7492
lwrist 12.3899
lhand -18.373 18.324
lfingers 7.12502
lthumb 7.91034 48.156
rfemur -21.1807 -10.1931 22.5632
rtibia 70.8869
rfoot 2.75578 -7.81751
rtoes 20.6854
lfemur -16.2596 6.08215 -26.8203
ltibia 26.0703
lfoot -8.2736 0.268721
ltoes 5.37259
424
root 36.9433 16.7136 -6.94449 -359.356 -77.2529 359.97
lowerback -0.390863 2.04575 0.704691
upperback 7.73077 2.53791 0.0589991
thorax 8.34516 1.22423 -0.148146
lowerneck 0.275086 9.08366 9.09282
upperneck 20.3425 12.1676 -4.22442
head 7.01336 6.07187 -2.07468
rclavicle -1.49089e-014 4.07509e-015
rhumerus -21.1594 2.27405 -87.7801
rradius 33.4926
rwrist -3.41084
rhand -27.2176 -1.61838
rfingers 7.12502
rthumb -0.630248 -31.5972
lclavicle -1.49089e-014 4.07509e-015
lhumerus -29.4595 -9.67845 91.2394
lradius 28.0592
lwrist 12.459
lhand -18.4998 18.3911
lfingers 7.12502
lthumb 7.78797 48.2277
rfemur -22.1632 -10.1059 22.3012
rtibia 72.3414
rfoot 3.08218 -7.96103
rtoes 19.9113
lfemur -16.0279 5.93828 -26.8632
ltibia 26.3435
lfoot -8.61753 0.272924
ltoes 5.10099
425
root 36.8758 16.701 -6.94133 -359.705 -77.0291 360.221
lowerback -0.328266 2.05815 0.631463
upperback 7.80472 2.5568 0.0370426
thorax 8.38714 1.22819 -0.129835
lowerneck 0.3957 9.12839 9.13026
upperneck 20.2555 12.237 -4.23784
head 6.97287 6.10989 -2.08588
rclavicle -3.96824e-014 1.40143e-014
rhumerus -21.0725 2.01741 -87.5439
rradius 33.3865
rwrist -3.39574
rhand -27.2662 -1.69535
rfingers 7.12502
rthumb -0.67717 -31.674
lclavicle -3.96824e-014 1.40143e-014
lhumerus -28.8703 -9.90459 91.2318
lradius 28.4689
lwrist 12.5818
lhand -18.634 18.4437
lfingers 7.12502
lthumb 7.65843 48.2851
rfemur -23.1214 -9.97795 22.0793
rtibia 73.6376
rfoot 2.92698 -8.01905
rtoes 19.0605
lfemur -15.8135 5.80471 -26.8838
ltibia 26.6169
lfoot -8.95487 0.302922
ltoes 4.73026
426
root 36.8077 16.6897 -6.93839 -360.007 -76.8082 360.422
lowerback -0.265408 2.06779 0.566852
upperback 7.87641 2.57132 0.0186157
thorax 8.42673 1.23043 -0.113033
lowerneck 0.501804 9.17152 9.1668
upperneck 20.1917 12.3028 -4.24784
head 6.94199 6.14585 -2.09518
rclavicle 3.74958e-014 -2.09718e-014
rhumerus -20.9882 1.77691 -87.3133
rradius 33.259
rwrist -3.3847
rhand -27.3062 -1.73431
rfingers 7.12502
rthumb -0.715802 -31.7129
lclavicle 3.74958e-014 -2.09718e-014
lhumerus -28.3271 -10.1427 91.2284
lradius 28.9823
lwrist 12.7724
lhand -18.7772 18.4834
lfingers 7.12502
lthumb 7.5202 48.3297
rfemur -24.0265 -9.81518 21.8793
rtibia 74.7533
rfoot 2.3723 -8.00793
rtoes 18.3531
lfemur -15.5814 5.68196 -26.8903
ltibia 26.8656
lfoot -9.27344 0.329583
ltoes 4.27504
427
root 36.7393 16.6798 -6.93568 -360.288 -76.5898 360.6
lowerback -0.196603 2.07323 0.50423
upperback 7.94428 2.58 0.00233802
thorax 8.45858 1.22984 -0.095856
lowerneck 0.585485 9.21468 9.19327
upperneck 20.1565 12.3657 -4.24625
head 6.92278 6.17986 -2.09801
rclavicle 1.89591e-014 -1.19271e-015
rhumerus -20.909 1.54783 -87.0901
rradius 33.1111
rwrist -3.36226
rhand -27.387 -1.69413
rfingers 7.12502
rthumb -0.793891 -31.6724
lclavicle 1.89591e-014 -1.19271e-015
lhumerus -27.8355 -10.3963 91.2309
lradius 29.5972
lwrist 13.0328
lhand -18.9405 18.5096
lfingers 7.12502
lthumb 7.36258 48.3615
rfemur -24.8771 -9.61382 21.692
rtibia 75.6789
rfoot 1.53807 -7.93678
rtoes 17.7707
lfemur -15.3222 5.57131 -26.8868
ltibia 27.0757
lfoot -9.56189 0.34437
ltoes 3.81514
428
root 36.6705 16.6718 -6.93329 -360.593 -76.3721 360.795
lowerback -0.118534 2.07523 0.435207
upperback 8.0086 2.58445 -0.0150125
thorax 8.48082 1.22677 -0.0770115
lowerneck 0.651077 9.25453 9.2175
upperneck 20.1479 12.4225 -4.2409
head 6.91449 6.21042 -2.09858
rclavicle 2.40281e-014 -1.49089e-015
rhumerus -20.8387 1.31884 -86.8743
rradius 32.9418
rwrist -3.31411
rhand -27.5054 -1.5746
rfingers 7.12502
rthumb -0.908193 -31.5524
lclavicle 2.40281e-014 -1.49089e-015
lhumerus -27.3939 -10.6726 91.24
lradius 30.3013
lwrist 13.3617
lhand -19.1312 18.5342
lfingers 7.12502
lthumb 7.17853 48.3925
rfemur -25.6669 -9.37385 21.5023
rtibia 76.4082
rfoot 0.545828 -7.81057
rtoes 17.3428
lfemur -15.0262 5.47427 -26.8805
ltibia 27.2395
lfoot -9.82027 0.33487
ltoes 3.39362
429
root 36.6019 16.6649 -6.93095 -360.926 -76.1688 361.024
lowerback -0.0318956 2.07845 0.362486
upperback 8.06536 2.59118 -0.0374403
thorax 8.48984 1.22486 -0.0617707
lowerneck 0.699559 9.29082 9.24033
upperneck 20.1582 12.4732 -4.23422
head 6.91466 6.23762 -2.09789
rclavicle -6.70898e-014 1.40143e-014
rhumerus -20.7749 1.08353 -86.6663
rradius 32.747
rwrist -3.24105
rhand -27.6456 -1.3783
rfingers 7.12502
rthumb -1.04364 -31.3555
lclavicle -6.70898e-014 1.40143e-014
lhumerus -27.0003 -10.9736 91.2554
lradius 31.0862
lwrist 13.7455
lhand -19.3592 18.5814
lfingers 7.12502
lthumb 6.95844 48.447
rfemur -26.4191 -9.08612 21.3025
rtibia 76.9474
rfoot -0.566641 -7.64935
rtoes 16.795
lfemur -14.7103 5.38779 -26.878
ltibia 27.3612
lfoot -10.0541 0.31569
ltoes 3.05529
430
root 36.5338 16.6589 -6.92856 -361.29 -75.9818 361.295
lowerback 0.0578313 2.08292 0.283879
upperback 8.11512 2.60034 -0.065008
thorax 8.48936 1.22404 -0.0487557
lowerneck 0.732747 9.32426 9.26261
upperneck 20.179 12.52 -4.23183
head 6.92081 6.26226 -2.09787
rclavicle 1.99033e-014 -9.93923e-016
rhumerus -20.718 0.845685 -86.4659
rradius 32.5291
rwrist -3.13511
rhand -27.7988 -1.14635
rfingers 7.12502
rthumb -1.19156 -31.1228
lclavicle 1.99033e-014 -9.93923e-016
lhumerus -26.6481 -11.2937 91.2751
lradius 31.9358
lwrist 14.1654
lhand -19.6198 18.6271
lfingers 7.12502
lthumb 6.70685 48.5009
rfemur -27.1404 -8.75265 21.0872
rtibia 77.3
rfoot -1.795 -7.47734
rtoes 16.1113
lfemur -14.3832 5.3098 -26.8846
ltibia 27.4467
lfoot -10.27 0.286273
ltoes 2.78776
431
root 36.466 16.6537 -6.92633 -361.678 -75.8083 361.599
lowerback 0.149207 2.08907 0.199198
upperback 8.15936 2.61237 -0.0971888
thorax 8.48182 1.22447 -0.0371984
lowerneck 0.742604 9.35318 9.28859
upperneck 20.2094 12.561 -4.23998
head 6.93457 6.28332 -2.10088
rclavicle -1.2101e-014 3.77691e-015
rhumerus -20.6633 0.600798 -86.273
rradius 32.2877
rwrist -2.9977
rhand -27.9377 -0.912557
rfingers 7.12502
rthumb -1.32578 -30.8882
lclavicle -1.2101e-014 3.77691e-015
lhumerus -26.3288 -11.6345 91.2978
lradius 32.8357
lwrist 14.606
lhand -19.9093 18.669
lfingers 7.12502
lthumb 6.42742 48.5514
rfemur -27.8279 -8.38232 20.8614
rtibia 77.4703
rfoot -3.15564 -7.32344
rtoes 15.3557
lfemur -14.0538 5.23709 -26.8997
ltibia 27.5061
lfoot -10.4746 0.258419
ltoes 2.55858
432
root 36.3985 16.6494 -6.92417 -362.071 -75.649 361.927
lowerback 0.233944 2.09662 0.111296
upperback 8.19698 2.62688 -0.133917
thorax 8.47101 1.22619 -0.0283548
lowerneck 0.739368 9.37782 9.32149
upperneck 20.2348 12.598 -4.26314
head 6.95 6.30176 -2.10941
rclavicle 5.27028e-014 -2.0773e-014
rhumerus -20.613 0.354837 -86.0896
rradius 32.0297
rwrist -2.83124
rhand -28.0472 -0.731471
rfingers 7.12502
rthumb -1.43148 -30.7064
lclavicle 5.27028e-014 -2.0773e-014
lhumerus -26.0378 -11.9866 91.3192
lradius 33.7753
lwrist 15.0464
lhand -20.2015 18.7039
lfingers 7.12502
lthumb 6.14526 48.5948
rfemur -28.4935 -7.97186 20.6256
rtibia 77.4603
rfoot -4.63432 -7.22917
rtoes 14.6048
lfemur -13.7327 5.16477 -26.9223
ltibia 27.5454
lfoot -10.6741 0.23137
ltoes 2.38491
433
root 36.3312 16.6459 -6.92208 -362.433 -75.5003 362.243
lowerback 0.305644 2.10441 0.0246159
upperback 8.22966 2.64174 -0.169266
thorax 8.46244 1.2282 -0.0183414
lowerneck 0.718214 9.40105 9.3525
upperneck 20.252 12.6339 -4.29593
head 6.96622 6.31888 -2.11996
rclavicle -9.28076e-014 2.85256e-014
rhumerus -20.5662 0.114874 -85.9118
rradius 31.766
rwrist -2.64922
rhand -28.1196 -0.627252
rfingers 7.12502
rthumb -1.50147 -30.6017
lclavicle -9.28076e-014 2.85256e-014
lhumerus -25.7682 -12.3404 91.3421
lradius 34.7433
lwrist 15.4695
lhand -20.4891 18.7238
lfingers 7.12502
lthumb 5.8676 48.6225
rfemur -29.1382 -7.53541 20.3928
rtibia 77.275
rfoot -6.19159 -7.24004
rtoes 13.7864
lfemur -13.4248 5.08947 -26.9447
ltibia 27.5698
lfoot -10.8722 0.207652
ltoes 2.25564
434
root 36.2639 16.6433 -6.91985 -362.752 -75.3639 362.537
lowerback 0.359792 2.11214 -0.0563799
upperback 8.25721 2.65639 -0.202388
thorax 8.45873 1.23051 -0.00861539
lowerneck 0.678318 9.42443 9.37831
upperneck 20.2658 12.6705 -4.33443
head 6.98456 6.33534 -2.13055
rclavicle 7.43455e-014 -1.32192e-014
rhumerus -20.5246 -0.118196 -85.7394
rradius 31.5026
rwrist -2.46367
rhand -28.1484 -0.609668
rfingers 7.12502
rthumb -1.5292 -30.5839
lclavicle 7.43455e-014 -1.32192e-014
lhumerus -25.5179 -12.6906 91.3666
lradius 35.7304
lwrist 15.8729
lhand -20.7576 18.7263
lfingers 7.12502
lthumb 5.60837 48.6321
rfemur -29.758 -7.07775 20.1649
rtibia 76.9163
rfoot -7.78523 -7.38928
rtoes 12.9159
lfemur -13.132 5.01022 -26.9645
ltibia 27.5817
lfoot -11.0704 0.190057
ltoes 2.1561
